<?xml version="1.0" encoding="UTF-8"?>
<svg id="Layer_2" data-name="Layer 2" xmlns="http://www.w3.org/2000/svg" viewBox="0 0 94.44 94.53">
  <defs>
    <style>
      .cls-1 {
        fill: #ffaa17;
      }
    </style>
  </defs>
  <g id="Layer_1-2" data-name="Layer 1">
    <path class="cls-1" d="M94.43,53.71s0-.07-.01-.11c-.02-.13-.06-.26-.13-.38,0,0,0-.01,0-.02,0,0,0,0,0,0-.07-.12-.17-.22-.28-.32-.03-.02-.06-.04-.08-.06s-.05-.05-.08-.06l-22.4-12.8V14.35s-.01-.06-.01-.09c0-.04,0-.07-.01-.11-.02-.13-.06-.26-.13-.38,0,0,0-.01,0-.02,0,0,0,0,0,0-.07-.12-.17-.22-.28-.32-.03-.02-.06-.05-.09-.07-.03-.02-.05-.05-.08-.06L47.82,.16c-.37-.21-.83-.21-1.2,0L23.62,13.31s-.05,.04-.08,.06c-.03,.02-.06,.04-.09,.07-.11,.09-.21,.19-.28,.32,0,0,0,0,0,0,0,0,0,.01,0,.02-.07,.12-.1,.25-.13,.38,0,.04-.01,.07-.01,.11,0,.03-.01,.06-.01,.09v25.59L.61,52.75s-.06,.04-.08,.06c-.03,.02-.06,.04-.08,.06-.11,.09-.21,.19-.28,.32,0,0,0,0,0,0,0,0,0,.01,0,.02-.06,.12-.1,.25-.13,.38,0,.04-.01,.07-.01,.11,0,.03-.01,.06-.01,.09v26.29c0,.43,.23,.83,.61,1.05l23.01,13.15s.06,.02,.09,.04c.03,.01,.06,.03,.1,.04,.14,.05,.27,.08,.42,.08s.28-.03,.42-.08c.03-.01,.06-.02,.1-.04,.03-.01,.06-.02,.09-.04l17.42-9.95v4.8c0,2.98,2.42,5.4,5.4,5.4s5.4-2.42,5.4-5.4v-4.34l16.6,9.49s.06,.02,.09,.04c.03,.01,.06,.03,.1,.04,.14,.05,.27,.08,.42,.08s.28-.03,.42-.08c.03-.01,.06-.02,.1-.04,.03-.01,.06-.02,.09-.04l23.01-13.15c.38-.21,.61-.61,.61-1.05v-26.29s-.01-.06-.01-.09Zm-24.2,11.85l-4.54-2.6c1.63-2.62,2.66-5.55,3.05-8.63l10.57,6.04-9.07,5.18h0Zm-21.3,7.7v3.5h-2.6v-3.5h.77s.07,0,.1,0c.15,0,.3,0,.45,0h1.28Zm-1.31-2.6h-.05c-5.12,.09-9.92-1.79-13.59-5.32-7.6-7.3-7.84-19.43-.54-27.03,3.75-3.9,8.77-5.87,13.79-5.87,4.77,0,9.54,1.77,13.24,5.32,3.68,3.54,5.77,8.3,5.87,13.4,.1,5.1-1.79,9.94-5.33,13.63-3.53,3.68-8.29,5.76-13.39,5.87h0Zm-23.4-5.1l-9.07-5.19,10.57-6.04c.39,3.02,1.42,5.96,3.06,8.62l-4.56,2.6ZM3.64,53.8l20.58-11.76,2.79,1.6c-1,2.57-1.49,5.3-1.48,8.02l-12.82,7.33-9.07-5.18h0ZM34.51,21.63v7.31c0,.67,.54,1.21,1.21,1.21s1.21-.54,1.21-1.21v-5.93l9.09,5.2v1.69c-5.3,.29-10.5,2.49-14.45,6.6-1.45,1.51-2.61,3.17-3.54,4.94l-2.6-1.49V16.43l9.09,5.19h0Zm33.29-7.27l-20.58,11.76-9.07-5.19,20.58-11.76s9.07,5.18,9.07,5.18Zm1.22,25.59l-2.59,1.48c-1.07-2.03-2.46-3.91-4.16-5.55-3.89-3.74-8.83-5.72-13.84-5.99v-1.69l20.59-11.77s0,23.52,0,23.52Zm12.71,19.03l-12.82-7.32c0-.18,.02-.37,.02-.55-.05-2.6-.58-5.11-1.5-7.47l2.8-1.6,20.58,11.76-9.07,5.18h0ZM47.22,2.6l9.07,5.18-20.58,11.76-9.07-5.18L47.22,2.6ZM2.41,55.87l9.09,5.19v7.31c0,.67,.54,1.21,1.21,1.21s1.21-.54,1.21-1.21v-5.93l9.09,5.19v23.52L2.41,79.39v-23.52h0Zm23.01,35.29v-23.52l4.74-2.71c.62,.79,1.28,1.56,2.02,2.27,3.22,3.1,7.23,5.06,11.56,5.76v3.79h-.2c-.72,0-1.3,.58-1.3,1.3v3.51s-16.81,9.61-16.81,9.61Zm25.01-2.02c0,1.54-1.26,2.8-2.8,2.8s-2.8-1.26-2.8-2.8v-9.79h5.61s0,9.79,0,9.79Zm1.3-12.39h-.2v-3.93c4.31-.86,8.24-3,11.35-6.23,.51-.53,.98-1.07,1.43-1.64l4.72,2.7v23.52l-15.99-9.14v-3.97c0-.72-.58-1.3-1.3-1.3Zm19.7,14.41v-23.52l9.09-5.19v5.93c0,.67,.54,1.21,1.21,1.21s1.21-.54,1.21-1.21v-7.31l9.09-5.19v23.52l-20.6,11.77h0Zm-12.89-51.41c-6.5-6.25-16.87-6.04-23.12,.47-6.25,6.5-6.04,16.88,.46,23.12,3.17,3.04,7.25,4.55,11.32,4.55,4.3,0,8.59-1.68,11.8-5.02h0c6.25-6.5,6.04-16.88-.46-23.12h0Zm-1.41,21.32c-5.25,5.47-13.98,5.64-19.45,.39-5.47-5.25-5.64-13.98-.39-19.45,2.7-2.81,6.31-4.22,9.92-4.22,3.43,0,6.86,1.27,9.52,3.83,5.47,5.25,5.64,13.98,.39,19.45Zm-1.63-15.34c.47,.47,.47,1.23,0,1.71l-9.92,9.92c-.24,.24-.54,.35-.85,.35s-.62-.12-.85-.35l-4.96-4.96c-.47-.47-.47-1.24,0-1.71,.47-.47,1.23-.47,1.71,0l4.11,4.11,9.07-9.06c.47-.47,1.24-.47,1.71,0h0Z"/>
  </g>
</svg>