<?xml version="1.0" encoding="UTF-8"?>
<svg id="Layer_2" data-name="Layer 2" xmlns="http://www.w3.org/2000/svg" viewBox="0 0 62 62">
  <defs>
    <style>
      .cls-1 {
        fill: #ffaa17;
      }
    </style>
  </defs>
  <g id="Layer_1-2" data-name="Layer 1">
    <g>
      <rect class="cls-1" x="6" y="41" width="2" height="2"/>
      <rect class="cls-1" x="6" y="37" width="2" height="2"/>
      <rect class="cls-1" x="10" y="41" width="2" height="2"/>
      <rect class="cls-1" x="10" y="45" width="2" height="2"/>
      <rect class="cls-1" x="14" y="41" width="2" height="2"/>
      <rect class="cls-1" x="10" y="37" width="2" height="2"/>
      <rect class="cls-1" x="14" y="37" width="2" height="2"/>
      <rect class="cls-1" x="10" y="33" width="2" height="2"/>
      <path class="cls-1" d="M61.37,42.75l-5.11-17.04c1.03-.48,1.74-1.51,1.74-2.71v-2c0-1.37-.93-2.52-2.19-2.87l-.61-2.43c-.22-.88-.81-1.62-1.62-2.02l-2.27-1.13c-.29-.15-.5-.41-.58-.72l-.49-1.94c-.26-1.04-1.02-1.86-2.03-2.19l-1.22-.41v-.98c0-1.18-.66-2.25-1.72-2.78l-.53-.27c-.1-.05-.2-.12-.29-.21l-2.14-2.14c-.58-.58-1.38-.91-2.2-.91-1.04,0-2.01,.52-2.58,1.38l-.92,1.38c-.15,.23-.38,.39-.65,.46l-2.17,.54c-.97,.24-1.76,.94-2.13,1.86l-1.2,3c-.13,.33-.42,.58-.76,.66l-1.83,.46c-1.04,.26-1.86,1.02-2.19,2.03l-.3,.9c-.11,.33-.37,.59-.7,.7l-.56,.19s-.08,.04-.12,.05v-2.62c0-1.9-3.33-2.6-6-2.85V3C18,.14,10.5,0,9,0S0,.14,0,3V39c0,1.14,1.16,1.75,2.07,2.08-.04,.47-.07,.94-.07,1.41v1.56c-.33-.03-.66-.05-1-.05H0v7c0,6.06,4.93,11,11,11H47.05c8.24,0,14.95-6.71,14.95-14.95,0-1.46-.21-2.9-.63-4.3Zm-5.37-19.75c0,.55-.45,1-1,1H23c-.55,0-1-.45-1-1v-2c0-.55,.45-1,1-1H55c.55,0,1,.45,1,1v2ZM12,55c0-4.62,3.51-8.45,8-8.94v4.94c0,4.62-3.51,8.44-8,8.94v-4.94Zm4.26-23.03c1.36-.05,2.62-.19,3.72-.39l-1.31,4.38c-.61-1.42-1.41-2.76-2.41-3.98Zm4.38-2.59c-1.42,.39-3.47,.62-5.64,.62-.26,0-.5,0-.75-.01-.95-.64-2.07-.99-3.25-.99-.65,0-1.28,.11-1.88,.31-.69-.21-1.01-.4-1.12-.49v-3.79c2.33,.89,6,.96,7,.96,2.34,0,4.53-.24,6.13-.68,.19,.15,.39,.29,.61,.39l-1.1,3.67Zm-16.09,4.26c-1.6-.28-2.33-.65-2.55-.82v-3.78c1.18,.45,2.7,.69,4,.82v1.82c-.53,.62-1.02,1.28-1.45,1.97Zm-2.55-10.6c1.18,.45,2.7,.69,4,.82v3.99c-2.43-.26-3.69-.76-4-1.03v-3.78Zm0-6c1.18,.45,2.7,.69,4,.82v3.99c-2.43-.26-3.69-.76-4-1.03v-3.78Zm0-6c1.18,.45,2.7,.69,4,.81v3.99c-2.43-.26-3.69-.76-4-1.03v-3.78Zm18.05,12.48c-1.37,.3-3.17,.48-5.05,.48-4.09,0-6.53-.76-7-1.18v-3.78c2.33,.89,6,.96,7,.96,.8,0,3.27-.05,5.42-.51-.26,.44-.42,.95-.42,1.51v2c0,.18,.02,.35,.05,.52Zm1.95-6.71c-.47,.43-2.91,1.18-7,1.18s-6.53-.76-7-1.18v-3.77c2.33,.89,6,.95,7,.95s4.67-.07,7-.96v3.78Zm2.76-1.35l.56-.19c.92-.31,1.66-1.04,1.97-1.96l.3-.9c.12-.36,.41-.63,.78-.72l1.83-.46c.96-.24,1.76-.94,2.13-1.86l1.2-3c.13-.33,.42-.58,.76-.66l2.17-.54c.75-.19,1.4-.65,1.83-1.29l.92-1.38c.37-.55,1.24-.64,1.7-.17l2.14,2.14c.24,.24,.51,.43,.81,.58l.53,.27c.38,.19,.61,.57,.61,.99v.31l-1.68-.56-.63,1.9,4.9,1.63c.36,.12,.63,.41,.72,.78l.49,1.94c.22,.88,.81,1.62,1.62,2.02l2.27,1.13c.29,.15,.5,.41,.58,.72l.45,1.82h-12l-.46-1.37c-.3-.89-1.01-1.6-1.9-1.9l-2.05-.68-.63,1.9,2.05,.68c.3,.1,.53,.33,.63,.63l.24,.74h-15.61v-1.48c0-.48,.3-.9,.76-1.05Zm-9.76-3.47c-3.54,0-5.86-.57-6.73-1,.86-.43,3.19-1,6.73-1s5.86,.57,6.73,1c-.86,.43-3.19,1-6.73,1ZM9,2c3.54,0,5.86,.57,6.73,1-.86,.43-3.19,1-6.73,1s-5.86-.57-6.73-1c.86-.43,3.19-1,6.73-1Zm0,4c1,0,4.67-.07,7-.96v2.98c-.43-.02-.78-.02-1-.02-1.28,0-6.86,.11-8.52,1.89-2.73-.24-4.15-.79-4.48-1.07v-3.77c2.33,.89,6,.95,7,.95ZM2,38.83v-3.77c.44,.17,.96,.31,1.55,.44-.53,1.13-.93,2.32-1.19,3.55-.18-.09-.3-.16-.36-.21Zm2,3.66c0-3.92,1.52-7.6,4.29-10.36,1.45-1.45,3.97-1.45,5.41,0,2.77,2.77,4.29,6.45,4.29,10.36v1.94c-3.11,.88-5.67,3.1-7,6-1.33-2.9-3.89-5.11-7-6v-1.94Zm-2,8.51v-4.94c4.49,.5,8,4.32,8,8.94v4.94c-4.49-.5-8-4.32-8-8.94Zm20,0v-3h.99c.38,0,.74,.15,1.01,.42l.81,.81c.44,.44,.99,.75,1.59,.9l2.26,.57c.41,.1,.75,.37,.93,.75,.45,.9,1.26,1.55,2.24,1.79l1.83,.46c.4,.1,.74,.37,.93,.75l.05,.1c.41,.82,1.11,1.43,1.98,1.72l.98,.33c.4,.13,.72,.43,.88,.83l1.03,2.58h-15.52v-.76c0-.38,.21-.72,.55-.89l.9-.45-.9-1.79-.9,.45c-1.02,.51-1.66,1.54-1.66,2.68v.76h-4.69c2.83-1.99,4.69-5.28,4.69-9Zm25.05,9h-5.37l-1.33-3.33c-.38-.94-1.14-1.66-2.1-1.98l-.98-.33c-.36-.12-.66-.38-.83-.72l-.05-.1c-.45-.9-1.26-1.55-2.24-1.79l-1.83-.46c-.4-.1-.74-.37-.93-.75-.45-.9-1.26-1.55-2.24-1.79l-2.26-.57c-.25-.06-.48-.19-.66-.38l-.81-.81c-.65-.65-1.51-1.01-2.42-1.01h-.99v-2h-1c-.34,0-.67,.02-1,.05v-1.56c0-1.03-.1-2.05-.29-3.05l4.03-13.44h30.51l5.2,17.33c.36,1.21,.55,2.46,.55,3.72,0,7.14-5.81,12.95-12.95,12.95Z"/>
      <path class="cls-1" d="M50,34.1v-2.1h-2v2h-4v5c0,2.76,2.24,5,5,5,1.65,0,3,1.35,3,3v3h-3c-1.65,0-3-1.35-3-3v-3h-2v3c0,2.41,1.72,4.43,4,4.9v2.1h2v-2h4v-5c0-2.76-2.24-5-5-5-1.65,0-3-1.35-3-3v-3h3c1.65,0,3,1.35,3,3v3h2v-3c0-2.41-1.72-4.43-4-4.9Z"/>
      <path class="cls-1" d="M25.4,54.04l.7,1.4,1.79-.9-.7-1.4c-.29-.58-.76-1.05-1.34-1.34l-1.4-.7-.9,1.79,1.4,.7c.19,.1,.35,.26,.45,.45Z"/>
      <path class="cls-1" d="M30,58.41c.53-.53,1.47-.53,2,0l.29,.29,1.41-1.41-.29-.29c-1.29-1.29-3.54-1.29-4.83,0l-.29,.29,1.41,1.41,.29-.29Z"/>
      <path class="cls-1" d="M35.95,10.14c.64-.32,1.48-.04,1.8,.6l.35,.71,1.79-.89-.35-.7c-.57-1.14-1.72-1.85-2.99-1.85-.52,0-1.03,.12-1.49,.35l-1.51,.75,.9,1.79,1.5-.75Z"/>
      <path class="cls-1" d="M45.66,14.55l.45,.89,1.79-.9-.45-.9c-.51-1.02-1.54-1.66-2.68-1.66h-1.76v2h1.76c.38,0,.72,.21,.89,.55Z"/>
      <path class="cls-1" d="M32.26,15.37c.27-.82,1.03-1.37,1.9-1.37h.84v-2h-.84c-1.72,0-3.25,1.1-3.79,2.73l-.32,.95,1.9,.63,.32-.95Z"/>
      <path class="cls-1" d="M37.29,31.29l-2.79,2.79-2.09-2.09,2.29-2.29-1.41-1.41-2.29,2.29-2.29-2.29-1.41,1.41,2.29,2.29-2.09,2.09-2.79-2.79-1.41,1.41,2.79,2.79-2.79,2.79,1.41,1.41,2.79-2.79,2.09,2.09-2.29,2.29,1.41,1.41,2.29-2.29,2.29,2.29,1.41-1.41-2.29-2.29,2.09-2.09,2.79,2.79,1.41-1.41-2.79-2.79,2.79-2.79-1.41-1.41Zm-6.29,6.29l-2.09-2.09,2.09-2.09,2.09,2.09-2.09,2.09Z"/>
    </g>
  </g>
</svg>