<?xml version="1.0" encoding="UTF-8"?>
<svg id="Layer_2" data-name="Layer 2" xmlns="http://www.w3.org/2000/svg" viewBox="0 0 80 43.5">
  <defs>
    <style>
      .cls-1 {
        fill: #ffaa17;
      }
    </style>
  </defs>
  <g id="Layer_1-2" data-name="Layer 1">
    <path class="cls-1" d="M66.6,1.8h12.5c.5,0,.9-.4,.9-.9S79.6,0,79.1,0h-12.5C65.1,0,63.9,1.2,63.9,2.7v2h-10.1c-3-.1-5.8-1.1-8.7-2.1l-.5-.2c-1.6-.6-3.1-1.1-5-.8-2.1,.4-3.9,1.5-5.5,2.8H16.1v-1.7c0-1.5-1.2-2.7-2.7-2.7H.9C.4,0,0,.4,0,.9s.4,.9,.9,.9H13.4c.5,0,.9,.4,.9,.9V27.3c0,.5-.4,.9-.9,.9H.9c-.5,0-.9,.4-.9,.9s.4,.9,.9,.9H13.4c1.5,0,2.7-1.2,2.7-2.7v-2.4h3c.3,.5,.9,1.5,1.1,2,.2,.3,.3,.6,.4,.7,3.3,4.8,7.6,8.9,11.8,12.8l1.9,1.8s.1,0,.1,.1l.1,.1,.4,.2c1.1,.6,2.2,.9,3.2,.9,.7,0,1.4-.2,2-.5,.5-.3,1-.7,1.4-1.1,.1,.1,.2,.1,.4,.2,.4,.1,.8,.2,1.1,.2,1.3,0,2.6-.6,3.3-1.7,.2-.3,.4-.7,.6-1.1h.1c.4,.1,.9,.2,1.3,.2,1.2,0,2.4-.5,3.3-1.3,.8-.7,1.2-1.5,1.4-2.2,.3,.1,.6,.1,.9,.1s.6,0,.8-.1c1.8-.5,2.8-2.6,2.9-4.2,0-.1,0-.7-.1-1.3l2-3.5c.8-1.4,2.3-2.2,3.9-2.2h.5v2.4c0,1.5,1.2,2.7,2.7,2.7h12.5c.5,0,.9-.4,.9-.9s-.4-.9-.9-.9h-12.5c-.5,0-.9-.4-.9-.9V2.7c0-.5,.4-.9,.9-.9Zm-10.7,30c0,1-.7,2.3-1.6,2.6-.6,.2-1.2-.1-1.7-.4-3.3-1.9-8-7.1-9.9-9.3-.3-.4-.9-.4-1.3-.1-.4,.3-.4,.9-.1,1.3,1.9,2.2,6.5,7.4,10.1,9.5-.1,.5-.4,1.1-1,1.7-.8,.7-2,1-2.9,.7-.2,0-.3-.1-.4-.2-1.2-.6-3.9-3.2-7.3-6.8-.3-.4-.9-.4-1.3,0-.4,.3-.4,.9,0,1.3,1.8,1.9,4.8,5,6.8,6.5,0,.4-.1,.7-.4,1-.6,.8-1.7,1.1-2.4,.9-.2-.1-.3-.1-.3-.2-1-.7-3.2-2.6-6.1-5.3-.4-.3-.9-.3-1.3,0-.3,.4-.3,.9,0,1.3,1.4,1.3,3.7,3.4,5.2,4.6-.3,.3-.6,.5-.8,.6-1,.5-2.2,.3-3.7-.4l-.3-.2-1.8-1.7c-4.1-3.9-8.4-7.8-11.6-12.5-.1-.1-.2-.3-.3-.6-1.3-2.4-1.7-2.9-2.3-2.9h-3.3V6.2h15.5c-.1,.1-.3,.2-.4,.3-1.2,.8-2.5,1.6-3.6,2.6-.8,.7-1.3,1.8-1.4,3.4,0,.9-.3,1.9-.8,3.1-.1,.2-.2,.5-.4,.7-.4,.8-.9,1.6-.8,2.5,.2,1.4,1.6,2.2,3,2.4,.3,.1,.6,.1,1,.1,1.9,0,3.7-1,5.3-3.1,1.1-1.4,1.8-2.6,2.3-3.5l2.6-1.6,.4,.3c7.8,7.1,16.5,15.5,17.2,17.4,.1,.4,.1,1,.1,1Zm8-8.7h-.5c-2.2,0-4.3,1.2-5.4,3.1l-1.4,2.5c-3.1-4.2-13.4-13.6-16.8-16.7h0l-.9-.7h0c-.1,0-.1-.1-.2-.1,0,0-.1,0-.1-.1h-.3q-.1,0-.2,.1t-.2,.1h0l-3.3,2.1h0l-.1,.1-.1,.1h0c-.4,.8-1.1,2-2.2,3.4-1.4,1.9-2.8,2.6-4.5,2.4-.8-.1-1.5-.5-1.5-.9,0-.3,.4-1,.6-1.5,.2-.3,.4-.7,.5-.9,.6-1.3,.8-2.5,.9-3.7,.1-1,.3-1.8,.8-2.1,1-.9,2.2-1.7,3.4-2.5,.8-.5,1.5-1,2.2-1.5l.3-.2c1.6-1.2,3.3-2.4,5.2-2.7,1.5-.3,2.7,.2,4.1,.7l.5,.2c3,1.1,6,2,9.2,2.2h10.2V23.1h-.2Z"/>
  </g>
</svg>