<?xml version="1.0" encoding="UTF-8"?>
<svg id="Layer_2" data-name="Layer 2" xmlns="http://www.w3.org/2000/svg" viewBox="0 0 93 93">
  <defs>
    <style>
      .cls-1 {
        fill: #ffaa17;
      }
    </style>
  </defs>
  <g id="Layer_1-2" data-name="Layer 1">
    <path class="cls-1" d="M12.46,52.73v.02c3.43,18.83,21.48,31.3,40.3,27.87,18.83-3.43,31.3-21.48,27.87-40.3-3.43-18.83-21.48-31.3-40.3-27.87-6.51,1.19-12.54,4.21-17.38,8.72-.02,.02-.05,.03-.07,.05s-.02,.04-.04,.06c-8.6,8.03-12.51,19.89-10.38,31.46Zm43.82,23.83v-9.07c0-1.13,.64-2.17,1.65-2.67l.6-.3c1.35-.67,2.99-.24,3.82,1.01,.95,1.42,2.45,2.37,4.14,2.61l2.67,.38c-3.58,3.69-8,6.45-12.88,8.04Zm-5.69-49.16c.54-1.62,.41-3.4-.36-4.93l-1.19-2.4c-.52-1.04-.49-2.27,.09-3.27l.96-1.69c17.29,1.91,29.75,17.47,27.84,34.76-.06,.59-.15,1.17-.24,1.76h-2.64c-.69,0-1.32-.39-1.63-1.01-2.08-4.11-2.26-3.83-1.51-7.64,.56-2.83-1.28-5.58-4.11-6.15-2.83-.56-5.58,1.28-6.15,4.11-.07,.33-.1,.67-.1,1.02,.15,2.94-.21,5.88-1.08,8.69-.14,.58-.66,.99-1.26,.99-.71,0-1.28-.57-1.28-1.28v-3c0-2.15-1.42-4.03-3.49-4.62l-4.57-1.31c-1.8-.51-2.88-2.37-2.42-4.19,.62-2.45-.04-.32,3.13-9.83Zm-3.83-12.5l-.23,.41c-1.08,1.87-1.15,4.17-.17,6.1l1.2,2.41c.42,.82,.49,1.77,.2,2.64-3.2,9.6-2.56,7.52-3.19,10.05-.85,3.39,1.14,6.84,4.5,7.8l4.58,1.31c.77,.22,1.3,.93,1.3,1.74v3c0,2.37,1.93,4.29,4.29,4.28,1.97,0,3.69-1.35,4.16-3.26,.92-3.05,1.32-6.23,1.17-9.42,.02-1.23,1.03-2.21,2.26-2.19,1.19,.02,2.16,.98,2.19,2.17-.05,.69-.16,1.37-.35,2.03-.66,3.23,.67,5.21,2.08,7.99,.81,1.64,2.48,2.67,4.31,2.67h2.01c-1.09,4.06-2.97,7.87-5.55,11.19l-4.59-.65c-.84-.12-1.59-.59-2.07-1.3-1.68-2.51-4.96-3.38-7.66-2.03l-.6,.3c-2.03,1.01-3.32,3.09-3.31,5.36v9.89c-17.03,3.72-33.87-7.03-37.64-24.06l4.48-2.56c1.27-.73,2.72-1.11,4.18-1.11h7.3c2.66,.04,4.84-2.08,4.88-4.74,.04-2.66-2.08-4.84-4.74-4.88-.05,0-.09,0-.14,0-1.91,0-3.47-1.55-3.47-3.47,0-1.57,.02-1.34,1.55-4.4,1.25-2.49,.76-5.5-1.21-7.47l-2.35-2.34c5.76-4.88,13.08-7.53,20.63-7.46h0Zm-22.83,9.51l2.42,2.42c1.06,1.05,1.32,2.67,.65,4-1.38,2.75-1.87,3.33-1.87,5.75,0,3.57,2.9,6.46,6.47,6.46,1-.02,1.83,.77,1.85,1.77s-.77,1.83-1.77,1.85c-.03,0-.06,0-.09,0-10.95,0-9.47-.49-16.49,3.52-1.12-9.49,2.12-18.97,8.82-25.78h0ZM0,46.5c-.02-8.9,2.53-17.61,7.35-25.09H3.55c-.83,0-1.5-.67-1.5-1.5s.67-1.5,1.5-1.5H11.73c.83,0,1.5,.67,1.5,1.5h0v8.18c0,.83-.67,1.5-1.5,1.5s-1.5-.67-1.5-1.5v-5.6c-13.26,20.04-7.76,47.02,12.28,60.28,15.95,10.55,36.92,9.45,51.68-2.72,.64-.53,1.58-.44,2.11,.2,.53,.64,.44,1.58-.2,2.11-19.81,16.34-49.12,13.53-65.46-6.28C3.76,67.76,0,57.3,0,46.5Zm93,0c.02,8.9-2.53,17.61-7.35,25.09h3.81c.83,0,1.5,.67,1.5,1.5s-.67,1.5-1.5,1.5h-8.18c-.83,0-1.5-.67-1.5-1.5v-8.18c0-.83,.67-1.5,1.5-1.5s1.5,.67,1.5,1.5v5.6c13.26-20.04,7.76-47.02-12.28-60.28C54.55-.32,33.57,.78,18.82,12.95c-.64,.53-1.58,.44-2.11-.2s-.44-1.58,.2-2.11C36.72-5.71,66.03-2.9,82.37,16.91c6.87,8.33,10.63,18.79,10.63,29.59Z"/>
  </g>
</svg>